<svg id="a5b357d0-b6bb-4b51-acaf-aaa20a4d1704" height="512" viewBox="0 0 35 35" width="512" xmlns="http://www.w3.org/2000/svg" data-name="Layer 2"><path d="m20.717 34.748h-17.101a3.37 3.37 0 0 1 -3.366-3.367v-17.1a3.369 3.369 0 0 1 3.366-3.365h17.1a3.368 3.368 0 0 1 3.365 3.365v17.1a3.369 3.369 0 0 1 -3.364 3.367zm-17.101-21.332a.866.866 0 0 0 -.866.865v17.1a.867.867 0 0 0 .866.867h17.1a.867.867 0 0 0 .865-.867v-17.1a.865.865 0 0 0 -.865-.865z"/><path d="m31.384 24.079h-8.547a1.25 1.25 0 1 1 0-2.5h8.547a.867.867 0 0 0 .866-.866v-17.095a.866.866 0 0 0 -.866-.865h-17.1a.866.866 0 0 0 -.866.865v8.548a1.25 1.25 0 0 1 -2.5 0v-8.548a3.369 3.369 0 0 1 3.361-3.365h17.105a3.369 3.369 0 0 1 3.366 3.365v17.1a3.37 3.37 0 0 1 -3.366 3.361z"/></svg>