<svg id="Layer_1" enable-background="new 0 0 512 512" height="512" viewBox="0 0 512 512" width="512" xmlns="http://www.w3.org/2000/svg"><path d="m512 480c0 17.673-14.327 32-32 32h-448c-17.673 0-32-14.327-32-32s14.327-32 32-32h448c17.673 0 32 14.326 32 32zm-369.377-302.622c8.189 0 16.379-3.124 22.627-9.373l58.75-58.75v246.746c0 17.673 14.327 32 32 32s32-14.327 32-32v-246.746l58.75 58.75c12.497 12.497 32.758 12.497 45.255 0s12.497-32.758 0-45.255l-113.378-113.377c-12.497-12.497-32.758-12.497-45.255 0l-113.377 113.377c-12.497 12.497-12.497 32.758 0 45.255 6.249 6.249 14.438 9.373 22.628 9.373z"/></svg>